<mxfile host="app.diagrams.net" agent="Mozilla/5.0 (Windows NT 10.0; Win64; x64) AppleWebKit/537.36 (KHTML, like Gecko) Chrome/128.0.0.0 Safari/537.36 OPR/114.0.0.0" version="24.8.4">
  <diagram name="Page-1" id="2YBvvXClWsGukQMizWep">
    <mxGraphModel grid="1" page="1" gridSize="10" guides="1" tooltips="1" connect="1" arrows="1" fold="1" pageScale="1" pageWidth="850" pageHeight="1100" math="0" shadow="0">
      <root>
        <mxCell id="0" />
        <mxCell id="1" parent="0" />
        <mxCell id="aM9ryv3xv72pqoxQDRHE-1" value="Usuário" style="shape=umlLifeline;perimeter=lifelinePerimeter;whiteSpace=wrap;html=1;container=0;dropTarget=0;collapsible=0;recursiveResize=0;outlineConnect=0;portConstraint=eastwest;newEdgeStyle={&quot;edgeStyle&quot;:&quot;elbowEdgeStyle&quot;,&quot;elbow&quot;:&quot;vertical&quot;,&quot;curved&quot;:0,&quot;rounded&quot;:0};" vertex="1" parent="1">
          <mxGeometry x="40" y="40" width="100" height="430" as="geometry" />
        </mxCell>
        <mxCell id="aM9ryv3xv72pqoxQDRHE-2" value="" style="html=1;points=[];perimeter=orthogonalPerimeter;outlineConnect=0;targetShapes=umlLifeline;portConstraint=eastwest;newEdgeStyle={&quot;edgeStyle&quot;:&quot;elbowEdgeStyle&quot;,&quot;elbow&quot;:&quot;vertical&quot;,&quot;curved&quot;:0,&quot;rounded&quot;:0};" vertex="1" parent="aM9ryv3xv72pqoxQDRHE-1">
          <mxGeometry x="45" y="70" width="10" height="330" as="geometry" />
        </mxCell>
        <mxCell id="aM9ryv3xv72pqoxQDRHE-4" value="" style="html=1;points=[];perimeter=orthogonalPerimeter;outlineConnect=0;targetShapes=umlLifeline;portConstraint=eastwest;newEdgeStyle={&quot;edgeStyle&quot;:&quot;elbowEdgeStyle&quot;,&quot;elbow&quot;:&quot;vertical&quot;,&quot;curved&quot;:0,&quot;rounded&quot;:0};" vertex="1" parent="aM9ryv3xv72pqoxQDRHE-1">
          <mxGeometry x="50" y="120" width="10" height="80" as="geometry" />
        </mxCell>
        <mxCell id="aM9ryv3xv72pqoxQDRHE-5" value="interface" style="shape=umlLifeline;perimeter=lifelinePerimeter;whiteSpace=wrap;html=1;container=0;dropTarget=0;collapsible=0;recursiveResize=0;outlineConnect=0;portConstraint=eastwest;newEdgeStyle={&quot;edgeStyle&quot;:&quot;elbowEdgeStyle&quot;,&quot;elbow&quot;:&quot;vertical&quot;,&quot;curved&quot;:0,&quot;rounded&quot;:0};" vertex="1" parent="1">
          <mxGeometry x="220" y="40" width="100" height="420" as="geometry" />
        </mxCell>
        <mxCell id="aM9ryv3xv72pqoxQDRHE-6" value="" style="html=1;points=[];perimeter=orthogonalPerimeter;outlineConnect=0;targetShapes=umlLifeline;portConstraint=eastwest;newEdgeStyle={&quot;edgeStyle&quot;:&quot;elbowEdgeStyle&quot;,&quot;elbow&quot;:&quot;vertical&quot;,&quot;curved&quot;:0,&quot;rounded&quot;:0};" vertex="1" parent="aM9ryv3xv72pqoxQDRHE-5">
          <mxGeometry x="45" y="80" width="10" height="310" as="geometry" />
        </mxCell>
        <mxCell id="aM9ryv3xv72pqoxQDRHE-7" value="&lt;font style=&quot;font-size: 14px;&quot;&gt;Solicita acesso&lt;/font&gt;" style="html=1;verticalAlign=bottom;endArrow=block;edgeStyle=elbowEdgeStyle;elbow=vertical;curved=0;rounded=0;" edge="1" parent="1" source="aM9ryv3xv72pqoxQDRHE-2" target="aM9ryv3xv72pqoxQDRHE-6">
          <mxGeometry relative="1" as="geometry">
            <mxPoint x="195" y="130" as="sourcePoint" />
            <Array as="points">
              <mxPoint x="180" y="120" />
            </Array>
          </mxGeometry>
        </mxCell>
        <mxCell id="kVtYG2DGbfuEtyrICrXy-3" value="Sistema" style="shape=umlLifeline;perimeter=lifelinePerimeter;whiteSpace=wrap;html=1;container=0;dropTarget=0;collapsible=0;recursiveResize=0;outlineConnect=0;portConstraint=eastwest;newEdgeStyle={&quot;edgeStyle&quot;:&quot;elbowEdgeStyle&quot;,&quot;elbow&quot;:&quot;vertical&quot;,&quot;curved&quot;:0,&quot;rounded&quot;:0};" vertex="1" parent="1">
          <mxGeometry x="420" y="40" width="100" height="430" as="geometry" />
        </mxCell>
        <mxCell id="kVtYG2DGbfuEtyrICrXy-4" value="" style="html=1;points=[];perimeter=orthogonalPerimeter;outlineConnect=0;targetShapes=umlLifeline;portConstraint=eastwest;newEdgeStyle={&quot;edgeStyle&quot;:&quot;elbowEdgeStyle&quot;,&quot;elbow&quot;:&quot;vertical&quot;,&quot;curved&quot;:0,&quot;rounded&quot;:0};" vertex="1" parent="kVtYG2DGbfuEtyrICrXy-3">
          <mxGeometry x="45" y="80" width="10" height="320" as="geometry" />
        </mxCell>
        <mxCell id="kVtYG2DGbfuEtyrICrXy-9" value="" style="html=1;points=[];perimeter=orthogonalPerimeter;outlineConnect=0;targetShapes=umlLifeline;portConstraint=eastwest;newEdgeStyle={&quot;edgeStyle&quot;:&quot;elbowEdgeStyle&quot;,&quot;elbow&quot;:&quot;vertical&quot;,&quot;curved&quot;:0,&quot;rounded&quot;:0};" vertex="1" parent="1">
          <mxGeometry x="475" y="130" width="10" height="170" as="geometry" />
        </mxCell>
        <mxCell id="kVtYG2DGbfuEtyrICrXy-10" value="API da IA" style="shape=umlLifeline;perimeter=lifelinePerimeter;whiteSpace=wrap;html=1;container=0;dropTarget=0;collapsible=0;recursiveResize=0;outlineConnect=0;portConstraint=eastwest;newEdgeStyle={&quot;edgeStyle&quot;:&quot;elbowEdgeStyle&quot;,&quot;elbow&quot;:&quot;vertical&quot;,&quot;curved&quot;:0,&quot;rounded&quot;:0};" vertex="1" parent="1">
          <mxGeometry x="620" y="40" width="100" height="410" as="geometry" />
        </mxCell>
        <mxCell id="kVtYG2DGbfuEtyrICrXy-11" value="" style="html=1;points=[];perimeter=orthogonalPerimeter;outlineConnect=0;targetShapes=umlLifeline;portConstraint=eastwest;newEdgeStyle={&quot;edgeStyle&quot;:&quot;elbowEdgeStyle&quot;,&quot;elbow&quot;:&quot;vertical&quot;,&quot;curved&quot;:0,&quot;rounded&quot;:0};" vertex="1" parent="kVtYG2DGbfuEtyrICrXy-10">
          <mxGeometry x="45" y="230" width="10" height="120" as="geometry" />
        </mxCell>
        <mxCell id="kVtYG2DGbfuEtyrICrXy-13" style="edgeStyle=elbowEdgeStyle;rounded=0;orthogonalLoop=1;jettySize=auto;html=1;elbow=vertical;curved=0;" edge="1" parent="1">
          <mxGeometry relative="1" as="geometry">
            <mxPoint x="280.5" y="140" as="sourcePoint" />
            <mxPoint x="475" y="140" as="targetPoint" />
          </mxGeometry>
        </mxCell>
        <mxCell id="kVtYG2DGbfuEtyrICrXy-14" value="&lt;font style=&quot;font-size: 15px;&quot;&gt;Autenticação&lt;/font&gt;" style="edgeLabel;html=1;align=center;verticalAlign=middle;resizable=0;points=[];" connectable="0" vertex="1" parent="kVtYG2DGbfuEtyrICrXy-13">
          <mxGeometry x="-0.1003" y="-1" relative="1" as="geometry">
            <mxPoint x="1" y="-11" as="offset" />
          </mxGeometry>
        </mxCell>
        <mxCell id="kVtYG2DGbfuEtyrICrXy-17" style="edgeStyle=elbowEdgeStyle;rounded=0;orthogonalLoop=1;jettySize=auto;html=1;elbow=vertical;curved=0;" edge="1" parent="1">
          <mxGeometry relative="1" as="geometry">
            <mxPoint x="465" y="180" as="sourcePoint" />
            <mxPoint x="269.5" y="180" as="targetPoint" />
          </mxGeometry>
        </mxCell>
        <mxCell id="kVtYG2DGbfuEtyrICrXy-18" value="&lt;font style=&quot;font-size: 14px;&quot;&gt;Retorna o acesso a interface&lt;/font&gt;" style="edgeLabel;html=1;align=center;verticalAlign=middle;resizable=0;points=[];" connectable="0" vertex="1" parent="kVtYG2DGbfuEtyrICrXy-17">
          <mxGeometry x="0.1253" relative="1" as="geometry">
            <mxPoint x="15" y="-10" as="offset" />
          </mxGeometry>
        </mxCell>
        <mxCell id="kVtYG2DGbfuEtyrICrXy-20" value="&lt;font style=&quot;font-size: 14px;&quot;&gt;Acessa a interface&lt;/font&gt;" style="edgeStyle=elbowEdgeStyle;rounded=0;orthogonalLoop=1;jettySize=auto;html=1;elbow=vertical;curved=0;" edge="1" parent="1">
          <mxGeometry x="0.0826" y="-15" relative="1" as="geometry">
            <mxPoint x="265.5" y="204.5" as="sourcePoint" />
            <mxPoint x="90" y="204.5" as="targetPoint" />
            <mxPoint as="offset" />
          </mxGeometry>
        </mxCell>
        <mxCell id="kVtYG2DGbfuEtyrICrXy-21" style="edgeStyle=elbowEdgeStyle;rounded=0;orthogonalLoop=1;jettySize=auto;html=1;elbow=vertical;curved=0;" edge="1" parent="1">
          <mxGeometry relative="1" as="geometry">
            <mxPoint x="95" y="260" as="sourcePoint" />
            <mxPoint x="269.5" y="260" as="targetPoint" />
          </mxGeometry>
        </mxCell>
        <mxCell id="kVtYG2DGbfuEtyrICrXy-22" value="&lt;font style=&quot;font-size: 13px;&quot;&gt;Pede ajuda de priorização de tarefas&lt;/font&gt;" style="edgeLabel;html=1;align=center;verticalAlign=middle;resizable=0;points=[];" connectable="0" vertex="1" parent="kVtYG2DGbfuEtyrICrXy-21">
          <mxGeometry x="0.2034" relative="1" as="geometry">
            <mxPoint x="-20" y="-10" as="offset" />
          </mxGeometry>
        </mxCell>
        <mxCell id="kVtYG2DGbfuEtyrICrXy-23" style="edgeStyle=elbowEdgeStyle;rounded=0;orthogonalLoop=1;jettySize=auto;html=1;elbow=vertical;curved=0;" edge="1" parent="1" source="aM9ryv3xv72pqoxQDRHE-6" target="kVtYG2DGbfuEtyrICrXy-3">
          <mxGeometry relative="1" as="geometry">
            <Array as="points">
              <mxPoint x="348" y="280" />
            </Array>
          </mxGeometry>
        </mxCell>
        <mxCell id="kVtYG2DGbfuEtyrICrXy-24" value="&lt;font style=&quot;font-size: 14px;&quot;&gt;Informa ao sistema&lt;/font&gt;" style="edgeLabel;html=1;align=center;verticalAlign=middle;resizable=0;points=[];" connectable="0" vertex="1" parent="kVtYG2DGbfuEtyrICrXy-23">
          <mxGeometry x="0.1722" y="-2" relative="1" as="geometry">
            <mxPoint x="-9" y="-12" as="offset" />
          </mxGeometry>
        </mxCell>
        <mxCell id="kVtYG2DGbfuEtyrICrXy-25" style="edgeStyle=elbowEdgeStyle;rounded=0;orthogonalLoop=1;jettySize=auto;html=1;elbow=vertical;curved=0;" edge="1" parent="1">
          <mxGeometry relative="1" as="geometry">
            <mxPoint x="475" y="320" as="sourcePoint" />
            <mxPoint x="669.5" y="320" as="targetPoint" />
          </mxGeometry>
        </mxCell>
        <mxCell id="kVtYG2DGbfuEtyrICrXy-26" value="&lt;font style=&quot;font-size: 13px;&quot;&gt;Consulta IA para priorizar&lt;/font&gt;" style="edgeLabel;html=1;align=center;verticalAlign=middle;resizable=0;points=[];" connectable="0" vertex="1" parent="kVtYG2DGbfuEtyrICrXy-25">
          <mxGeometry x="-0.2082" y="3" relative="1" as="geometry">
            <mxPoint x="18" y="-12" as="offset" />
          </mxGeometry>
        </mxCell>
        <mxCell id="kVtYG2DGbfuEtyrICrXy-27" style="edgeStyle=elbowEdgeStyle;rounded=0;orthogonalLoop=1;jettySize=auto;html=1;elbow=vertical;curved=0;" edge="1" parent="1">
          <mxGeometry relative="1" as="geometry">
            <mxPoint x="665" y="370" as="sourcePoint" />
            <mxPoint x="469.5" y="370" as="targetPoint" />
          </mxGeometry>
        </mxCell>
        <mxCell id="kVtYG2DGbfuEtyrICrXy-28" value="&lt;font style=&quot;font-size: 14px;&quot;&gt;Retorna prioridade&lt;/font&gt;" style="edgeLabel;html=1;align=center;verticalAlign=middle;resizable=0;points=[];" connectable="0" vertex="1" parent="kVtYG2DGbfuEtyrICrXy-27">
          <mxGeometry x="0.2072" y="-1" relative="1" as="geometry">
            <mxPoint x="13" y="-9" as="offset" />
          </mxGeometry>
        </mxCell>
        <mxCell id="kVtYG2DGbfuEtyrICrXy-29" style="edgeStyle=elbowEdgeStyle;rounded=0;orthogonalLoop=1;jettySize=auto;html=1;elbow=vertical;curved=0;" edge="1" parent="1">
          <mxGeometry relative="1" as="geometry">
            <mxPoint x="465" y="390" as="sourcePoint" />
            <mxPoint x="275" y="390" as="targetPoint" />
          </mxGeometry>
        </mxCell>
        <mxCell id="kVtYG2DGbfuEtyrICrXy-30" value="&lt;font style=&quot;font-size: 14px;&quot;&gt;Atualiza a interface&lt;/font&gt;" style="edgeLabel;html=1;align=center;verticalAlign=middle;resizable=0;points=[];" connectable="0" vertex="1" parent="kVtYG2DGbfuEtyrICrXy-29">
          <mxGeometry x="0.3158" y="-3" relative="1" as="geometry">
            <mxPoint x="20" y="-7" as="offset" />
          </mxGeometry>
        </mxCell>
        <mxCell id="kVtYG2DGbfuEtyrICrXy-31" style="edgeStyle=elbowEdgeStyle;rounded=0;orthogonalLoop=1;jettySize=auto;html=1;elbow=vertical;curved=0;" edge="1" parent="1">
          <mxGeometry relative="1" as="geometry">
            <mxPoint x="265" y="410" as="sourcePoint" />
            <mxPoint x="89.5" y="410" as="targetPoint" />
          </mxGeometry>
        </mxCell>
        <mxCell id="kVtYG2DGbfuEtyrICrXy-32" value="&lt;font style=&quot;font-size: 14px;&quot;&gt;Mostra resultado&lt;/font&gt;" style="edgeLabel;html=1;align=center;verticalAlign=middle;resizable=0;points=[];" connectable="0" vertex="1" parent="kVtYG2DGbfuEtyrICrXy-31">
          <mxGeometry x="0.2422" y="-1" relative="1" as="geometry">
            <mxPoint x="14" y="-9" as="offset" />
          </mxGeometry>
        </mxCell>
      </root>
    </mxGraphModel>
  </diagram>
</mxfile>
